<svg xmlns="http://www.w3.org/2000/svg" id="Layer_2" viewBox="0 0 271.67 207.59"><defs><style>.cls-1{fill:#fff;stroke:#fff;stroke-miterlimit:10;}</style></defs><g id="Layer_1-2"><path class="cls-1" d="m271.13,111.44c-3.28,29.36-24.92,53.35-53.78,59.63-2.63.57-5.35-.44-6.97-2.59s-1.83-5.05-.56-7.41c8.46-15.66,13.35-33,14.31-50.77.2-3.65,3.22-6.51,6.88-6.51h33.28c4.11,0,7.3,3.57,6.84,7.65Z"/><path class="cls-1" d="m206.21,90.31c-3.28-24.87-15.45-47.64-34.31-64.18C153.04,9.59,128.88.5,103.8.5h-49.95c-3.13,0-5.86,2.1-6.66,5.13-.8,3.02.54,6.2,3.26,7.74.02.02.04.03.06.04.55.3,1.1.61,1.64.93C30.43,26.88,14.05,46.84,5.99,70.59s-7.22,49.55,2.38,72.73c9.6,23.17,27.25,42.02,49.75,53.11,22.49,11.1,48.18,13.63,72.41,7.13,24.23-6.49,45.22-21.53,59.15-42.38,13.94-20.86,19.8-46,16.53-70.87Zm-18.1,22.87c-3.1,7.94-9.92,13.84-18.22,15.77-8.3,1.92-17.02-.37-23.3-6.13-1.27-1.17-2.93-1.81-4.65-1.81h-31.25c-3.81,0-6.89-3.09-6.89-6.89v-3.44c0-3.81,3.08-6.89,6.89-6.89h71c4.85,0,8.18,4.88,6.42,9.39Z"/></g></svg>
