<svg xmlns="http://www.w3.org/2000/svg" id="Layer_2" viewBox="0 0 1354 156.35"><defs><style>.cls-1{fill:#fff;}.cls-2{fill:none;stroke:#fff;stroke-miterlimit:10;stroke-width:8px;}</style></defs><g id="Layer_1-2"><path class="cls-2" d="m16.44,149.82c-6.84,0-12.44-5.6-12.44-12.44V18.92c0-6.84,5.6-12.44,12.44-12.44h72.04c34.75,0,62.92,28.17,62.92,62.92v17.5c0,34.75-28.17,62.92-62.92,62.92H16.44Zm104.09-80.42c0-18.32-14.85-33.17-33.17-33.17h-52.21s-.04.02-.04.04v83.76s.02.04.04.04h52.88c17.95,0,32.5-14.55,32.5-32.5v-18.18Z"></path><path class="cls-2" d="m227.35,149.82c-32.23,0-57.47-24.34-57.47-57.25V20.05c0-8.38,6.41-15.62,14.78-16.03,8.91-.43,16.32,6.71,16.32,15.53v73.03c0,16.68,11.04,27.5,26.37,27.5h26.59c15.33,0,26.37-10.82,26.37-27.5V20.05c0-8.38,6.41-15.62,14.78-16.03,8.91-.43,16.32,6.71,16.32,15.53v73.03c0,32.91-25.24,57.25-57.47,57.25h-26.59Z"></path><path class="cls-2" d="m392.81,149.82c-34.75,0-62.92-28.17-62.92-62.92v-17.5c0-34.75,28.17-62.92,62.92-62.92h55.63c6.79,0,13,4.36,14.79,10.91,2.66,9.75-4.93,18.84-14.34,18.84h-55.4c-17.95,0-32.5,14.55-32.5,32.5v18.18c0,18.32,14.85,33.17,33.17,33.17h54.28c6.79,0,13,4.36,14.79,10.91,2.66,9.75-4.93,18.84-14.34,18.84h-56.08Z"></path><path class="cls-2" d="m511.99,87.67v48.58c0,8.38-6.41,15.62-14.78,16.03-8.91.43-16.32-6.71-16.32-15.53V20.05c0-8.38,6.41-15.62,14.78-16.03,8.91-.44,16.32,6.71,16.32,15.53v49.31c0,1.67,1.92,2.6,3.23,1.57l80.16-62.83c6.76-5.41,16.45-4.28,21.86,2.48,5.18,6.54,4.06,16.45-2.93,21.64l-60.59,46.62s-.02.05,0,.06l60.59,46.4c6.76,5.41,8.11,15.1,2.93,21.64-5.41,6.76-15.1,7.89-21.86,2.48l-80.16-62.83c-1.31-1.03-3.23-.09-3.23,1.57Z"></path><path class="cls-2" d="m687.56,98s0-.02,0-.03l-56.34-68.05c-5.41-6.54-4.51-16.9,2.25-22.09,6.76-5.41,16.68-4.28,22.09,2.48l46,57.12c.8.99,2.31.99,3.12,0l46-57.12c5.41-6.76,15.33-7.89,22.09-2.48,6.76,5.18,7.66,15.55,2.25,22.09l-56.34,68.05s0,.02,0,.03v38.25c0,8.38-6.41,15.62-14.78,16.03-8.91.43-16.32-6.71-16.32-15.53v-38.75Z"></path><path class="cls-1" d="m756.3,134.27c0-10.14,8.34-18.48,18.48-18.48s18.48,8.34,18.48,18.48-8.34,18.48-18.48,18.48-18.48-8.34-18.48-18.48Z"></path><path class="cls-1" d="m995.2,52.23c0-9.02-6.76-16-15.33-16s-15.33,6.99-15.33,16v52.97c0,29.07-19.61,47.56-46.43,47.56s-46.43-18.48-46.43-47.56v-52.97c0-9.02-6.76-16-15.33-16s-15.33,6.99-15.33,16v84.52c0,8.56-6.99,15.55-15.55,15.55s-15.55-6.99-15.55-15.55V54.04c0-29.07,19.61-47.56,46.43-47.56s46.43,18.48,46.43,47.56v52.97c0,9.02,6.76,16,15.33,16s15.33-6.99,15.33-16v-52.97c0-29.07,19.61-47.56,46.43-47.56s46.43,18.48,46.43,47.56v82.72c0,8.56-6.99,15.55-15.55,15.55s-15.55-6.99-15.55-15.55V52.23Z"></path><path class="cls-1" d="m1108.11,149.82c-35.61,0-62.88-27.27-62.88-62.88v-17.58c0-35.61,27.27-62.88,62.88-62.88h35.16c35.61,0,62.88,27.27,62.88,62.88v17.58c0,35.61-27.27,62.88-62.88,62.88h-35.16Zm66.94-80.46c0-18.71-13.75-33.13-32.46-33.13h-33.81c-18.71,0-32.45,14.42-32.45,33.13v17.58c0,18.71,13.75,33.13,32.45,33.13h33.81c18.71,0,32.46-14.42,32.46-33.13v-17.58Z"></path><path class="cls-1" d="m1262.94,36.23h-45.08c-8.11,0-14.87-6.76-14.87-14.88s6.76-14.88,14.87-14.88h121.26c8.11,0,14.87,6.76,14.87,14.88s-6.76,14.88-14.87,14.88h-45.08v100.52c0,8.56-6.99,15.55-15.55,15.55s-15.55-6.99-15.55-15.55V36.23Z"></path></g></svg>